<?xml version="1.0" encoding="UTF-8" standalone="no"?>
<!DOCTYPE svg PUBLIC "-//W3C//DTD SVG 1.1//EN" "http://www.w3.org/Graphics/SVG/1.1/DTD/svg11.dtd">
<svg width="100%" height="100%" viewBox="0 0 375 377" version="1.1" xmlns="http://www.w3.org/2000/svg" xmlns:xlink="http://www.w3.org/1999/xlink" xml:space="preserve" xmlns:serif="http://www.serif.com/" style="fill-rule:evenodd;clip-rule:evenodd;stroke-linejoin:round;stroke-miterlimit:2;">
    <g transform="matrix(1,0,0,1,-3416.231907,-257.877105)">
        <g id="Black---White-" serif:id="Black &amp; White " transform="matrix(1,0,0,1,2561.464826,-261.880558)">
            <g id="rect1" transform="matrix(0.408638,0,0,0.408638,723.185784,341.591683)">
                <rect x="322" y="436" width="247" height="247"/>
            </g>
            <g id="rect2" transform="matrix(0.408638,0,0,0.408638,849.352656,341.591683)">
                <rect x="322" y="436" width="247" height="247"/>
            </g>
            <g id="rect3" transform="matrix(0.408638,0,0,0.408638,975.519528,341.591683)">
                <rect x="322" y="436" width="247" height="247"/>
            </g>
            <g id="rect5" transform="matrix(0.408638,0,0,0.408638,723.185784,467.758555)">
                <rect x="322" y="436" width="247" height="247"/>
            </g>
            <g id="rect6" transform="matrix(0.408638,0,0,0.408638,849.352656,467.758555)">
                <rect x="322" y="436" width="247" height="247"/>
            </g>
            <g id="rect7" transform="matrix(0.408638,0,0,0.408638,975.519528,467.758555)">
                <rect x="322" y="436" width="247" height="247"/>
            </g>
            <g id="rect9" transform="matrix(0.408638,0,0,0.408638,723.185784,593.925427)">
                <rect x="322" y="436" width="247" height="247"/>
            </g>
            <g id="rect10" transform="matrix(0.408638,0,0,0.408638,849.352656,593.925427)">
                <rect x="322" y="436" width="247" height="247"/>
            </g>
            <g id="rect20" transform="matrix(0.408638,0,0,0.408638,723.185784,467.758555)">
                <rect x="322" y="436" width="247" height="247"/>
            </g>
            <g id="rect21" transform="matrix(0.408638,0,0,0.408638,849.352656,467.758555)">
                <rect x="322" y="436" width="247" height="247"/>
            </g>
            <g id="rect22" transform="matrix(0.408638,0,0,0.408638,975.519528,467.758555)">
                <rect x="322" y="436" width="247" height="247"/>
            </g>
            <g id="rect24" transform="matrix(0.408638,0,0,0.408638,723.185784,593.925427)">
                <rect x="322" y="436" width="247" height="247"/>
            </g>
            <g id="rect25" transform="matrix(0.408638,0,0,0.408638,849.352656,593.925427)">
                <rect x="322" y="436" width="247" height="247"/>
            </g>
            <g id="Cresent11--Wait--I-found-it-" serif:id="Cresent11 (Wait, I found it)" transform="matrix(-0.224135,-0.210941,-0.178002,0.189136,1697.347066,841.782266)">
                <path d="M1316.631,1657.198C1240.244,1610.256 1178.447,1501.788 1178.447,1379C1178.447,1256.212 1240.244,1147.744 1316.631,1100.802C1317.129,1100.415 1317.072,1100.194 1316.46,1100.137C1182.976,1112.863 1074.854,1233.405 1074.854,1379C1074.854,1524.6 1182.983,1645.144 1316.472,1657.864C1317.066,1657.809 1317.114,1657.573 1316.631,1657.198Z"/>
            </g>
        </g>
    </g>
</svg>
